<?xml version="1.0" standalone="no"?>
<!DOCTYPE svg PUBLIC "-//W3C//DTD SVG 20010904//EN"
 "http://www.w3.org/TR/2001/REC-SVG-20010904/DTD/svg10.dtd">
<svg version="1.0" xmlns="http://www.w3.org/2000/svg"
 width="1038.000000pt" height="1280.000000pt" viewBox="0 0 1038.000000 1280.000000"
 preserveAspectRatio="xMidYMid meet">
<g transform="translate(0.000000,1280.000000) scale(0.100000,-0.100000)"
fill="#000000" stroke="none">
<path d="M4239 12796 c-2 -2 -45 -11 -96 -20 -176 -30 -330 -102 -452 -211
-43 -38 -67 -53 -74 -46 -5 5 -12 46 -16 90 l-6 80 -153 -99 c-85 -55 -177
-124 -204 -153 -64 -64 -104 -149 -120 -249 -7 -49 -16 -78 -24 -78 -16 0 -83
106 -91 143 -3 15 -9 30 -14 33 -28 17 -33 -227 -6 -289 16 -37 16 -38 -5 -55
-48 -38 -81 -81 -114 -147 -55 -113 -76 -209 -81 -380 -6 -174 8 -259 57 -358
28 -58 30 -67 21 -108 -36 -154 12 -330 121 -445 98 -104 210 -156 342 -158
l78 -1 19 -73 c31 -124 77 -207 167 -304 37 -40 44 -54 49 -101 l6 -54 -62
-33 c-34 -18 -75 -48 -91 -67 -28 -31 -30 -40 -30 -111 0 -73 -2 -80 -40 -136
-53 -78 -53 -110 -1 -166 l39 -42 -112 -111 c-61 -62 -161 -168 -221 -237 -60
-69 -155 -172 -210 -231 -188 -196 -261 -355 -335 -731 -11 -54 -14 -59 -68
-95 -71 -48 -115 -114 -147 -217 -14 -45 -41 -106 -60 -136 -56 -89 -44 -135
51 -201 24 -16 44 -34 44 -39 0 -25 -190 -1 -286 36 -51 20 -44 0 -124 319
-36 141 -59 252 -57 270 3 17 19 70 37 120 32 89 32 91 25 205 -15 216 -12
255 28 359 22 54 37 110 37 135 0 60 -36 116 -90 144 -57 28 -116 28 -203 -2
-47 -16 -70 -19 -75 -12 -5 6 -118 454 -251 994 -286 1156 -258 1052 -277
1052 -8 0 -72 -29 -143 -65 l-130 -64 6 -147 c5 -116 4 -146 -7 -142 -7 2 -50
84 -96 183 -46 99 -88 183 -92 187 -8 8 -668 -224 -682 -239 -4 -4 37 -177 91
-383 55 -206 158 -599 230 -873 71 -274 132 -504 136 -512 3 -10 -7 -21 -27
-32 -119 -65 -157 -166 -105 -278 10 -20 33 -47 51 -58 39 -25 43 -47 13 -65
-28 -18 -49 -72 -49 -126 0 -91 61 -201 135 -242 19 -11 19 -12 -7 -42 -84
-100 -46 -244 85 -321 l59 -35 -7 -42 c-14 -98 39 -173 137 -193 29 -6 62 -12
73 -13 21 -3 26 -20 175 -588 39 -151 119 -455 177 -675 58 -220 151 -574 207
-787 56 -213 104 -390 107 -392 4 -4 109 24 307 83 62 19 72 25 72 45 0 13
-14 102 -30 199 -34 198 -35 220 -17 215 9 -4 96 -134 156 -237 13 -21 541
156 541 182 0 9 -43 189 -95 399 -53 210 -92 385 -88 389 5 5 46 -7 93 -26
189 -77 352 -33 522 142 88 90 109 116 193 241 l71 107 65 5 c51 4 74 11 102
33 45 34 53 34 65 -1 161 -439 272 -750 272 -765 0 -10 -9 -35 -20 -57 -30
-59 -26 -102 15 -163 19 -28 35 -60 35 -71 0 -29 -260 -1009 -270 -1020 -5 -5
-31 -21 -56 -35 -98 -54 -110 -111 -74 -348 24 -159 24 -298 0 -693 -13 -218
-13 -872 0 -1085 11 -174 33 -393 50 -499 5 -32 7 -62 5 -66 -2 -3 -34 -22
-71 -40 -78 -40 -156 -107 -174 -150 -8 -19 -10 -53 -6 -97 18 -212 18 -247
-3 -363 -11 -63 -23 -144 -27 -180 -4 -40 -13 -73 -24 -85 -32 -37 -42 -63
-30 -85 14 -26 49 -34 116 -26 30 3 54 2 54 -3 0 -24 -151 -136 -239 -177 -96
-45 -172 -99 -192 -136 -10 -18 -4 -17 47 11 93 50 97 42 19 -49 -31 -36 -69
-92 -86 -126 -27 -55 -30 -67 -27 -149 l3 -89 40 -23 c82 -47 269 -91 470
-112 61 -7 143 -16 183 -21 172 -23 334 3 447 71 34 20 131 108 242 218 l185
185 -6 103 -7 103 43 19 c71 31 93 62 92 129 -1 31 -13 93 -27 137 -15 44 -29
98 -33 121 -8 53 16 148 61 241 50 102 47 125 -22 209 -18 23 -33 52 -33 66 0
73 175 715 281 1030 103 308 282 758 301 758 13 0 15 -12 27 -180 21 -312 93
-651 247 -1167 30 -100 54 -187 54 -193 0 -5 -9 -10 -21 -10 -31 0 -57 -17
-73 -48 -27 -53 -48 -184 -48 -312 -1 -140 12 -220 49 -297 30 -64 67 -93 121
-93 23 0 43 -3 45 -7 3 -5 -3 -46 -14 -93 -10 -47 -19 -99 -19 -115 0 -17 -7
-41 -16 -54 -20 -28 -24 -99 -6 -110 8 -4 48 -13 90 -19 42 -6 214 -40 382
-76 473 -101 581 -117 822 -123 222 -6 362 4 528 37 182 37 369 112 425 170
24 25 27 34 20 67 -4 21 -8 72 -10 113 -3 97 -24 146 -67 164 -18 8 -82 19
-143 25 -60 6 -137 17 -170 26 -63 17 -471 220 -520 260 l-30 23 27 29 c69 73
64 192 -11 256 -26 21 -43 27 -82 27 -60 0 -60 -1 -18 131 21 67 29 107 24
126 -9 37 -57 79 -140 122 -53 27 -70 41 -69 56 1 11 31 137 67 280 155 611
274 1221 441 2266 33 203 26 228 -115 433 l-69 99 0 193 c0 521 -68 986 -216
1477 -9 30 16 19 80 -35 113 -95 212 -121 295 -78 21 10 62 45 90 77 l51 57
58 -31 c95 -52 160 -66 286 -61 97 4 126 10 232 46 420 144 827 402 1262 801
l143 131 82 0 c151 0 207 60 207 218 0 84 0 84 49 157 125 188 188 397 198
660 6 163 -5 262 -37 351 -11 30 -29 80 -41 112 -25 68 -58 107 -119 136 l-45
21 -5 191 c-5 205 -10 222 -66 261 -14 10 -34 26 -45 36 -18 16 -19 43 -19
836 0 451 3 826 6 835 5 13 24 16 99 16 102 0 133 8 177 45 27 23 34 24 111
19 261 -18 456 -95 651 -256 89 -75 118 -83 154 -45 24 26 27 39 12 65 -5 9
-25 52 -44 94 -137 306 -438 518 -773 544 -66 6 -82 11 -108 34 -16 15 -40 33
-52 39 -15 8 -145 11 -416 11 -393 0 -394 0 -428 -23 -30 -20 -41 -35 -69 -97
-10 -20 -149 -27 -161 -8 -5 7 -9 50 -9 95 0 149 -21 166 -203 171 -170 5
-213 -2 -249 -40 l-28 -30 0 -334 c0 -237 3 -341 12 -359 22 -48 52 -55 232
-55 l166 0 32 29 c32 29 33 31 38 133 l5 103 80 3 81 3 21 -50 c30 -73 56 -85
188 -91 l110 -5 3 -837 2 -837 -42 -28 c-26 -17 -52 -46 -65 -73 -22 -41 -23
-57 -23 -240 0 -162 -3 -202 -17 -237 -17 -41 -18 -41 -68 -40 -63 1 -117 -24
-153 -71 -26 -34 -27 -41 -25 -141 2 -175 21 -418 33 -443 7 -13 33 -44 59
-70 25 -25 61 -65 80 -87 l33 -41 -17 -36 c-16 -34 -16 -38 1 -75 17 -39 17
-40 -5 -63 -40 -42 -421 -208 -681 -295 -281 -95 -710 -187 -710 -152 0 5 7
25 15 44 8 20 15 51 15 70 0 53 -32 75 -144 97 -81 17 -113 29 -189 75 -110
65 -212 105 -268 105 -37 0 -46 5 -88 52 -174 198 -336 342 -526 470 -217 145
-496 264 -721 308 -53 10 -98 21 -101 24 -3 3 4 25 16 49 11 24 21 51 21 59 0
9 -20 39 -43 67 -24 28 -50 70 -57 94 -27 92 -77 157 -121 157 -30 0 -28 13
11 78 22 36 56 119 80 195 23 73 73 226 112 341 92 274 118 391 118 526 0 131
-17 201 -80 343 -61 138 -74 196 -66 295 22 291 19 333 -28 389 -35 43 -102
171 -93 179 13 13 73 -25 153 -100 l77 -71 -6 35 c-11 56 -62 151 -113 208
-25 29 -44 55 -42 57 2 3 40 -11 84 -30 81 -35 260 -73 275 -58 9 9 -164 230
-297 377 -158 177 -314 285 -484 337 -91 28 -273 32 -413 10 -48 -8 -90 -12
-93 -8 -7 6 8 22 110 115 l69 62 -70 0 c-38 0 -72 -2 -74 -4z m2402 -11136
c72 -39 62 -250 -13 -250 -13 0 -36 11 -52 24 l-30 23 22 28 c24 31 29 88 11
129 -22 47 12 72 62 46z m-3481 -727 c27 -34 12 -53 -24 -29 -25 16 -33 36
-19 49 11 12 21 8 43 -20z"/>
</g>
</svg>
